<?xml version="1.0" standalone="no"?>
<!DOCTYPE svg PUBLIC "-//W3C//DTD SVG 20010904//EN"
    "http://www.w3.org/TR/2001/REC-SVG-20010904/DTD/svg10.dtd">
<svg version="1.0" xmlns="http://www.w3.org/2000/svg"
     width="700.000000pt" height="700.000000pt" viewBox="0 0 700.000000 700.000000"
     preserveAspectRatio="xMidYMid meet">
    <metadata>
        Created by potrace 1.11, written by Peter Selinger 2001-2013
    </metadata>
    <g transform="translate(0.000000,700.000000) scale(0.100000,-0.100000)"
       fill="#000000" stroke="none">
        <path d="M1918 6902 l-56 -27 4 -45 c2 -25 6 -74 9 -110 6 -71 -9 -45 180
-320 39 -58 102 -150 140 -205 38 -55 84 -122 102 -148 19 -27 33 -50 31 -52
-7 -6 -255 -134 -418 -216 -217 -108 -338 -165 -505 -236 -196 -84 -255 -112
-310 -146 -174 -108 -341 -291 -498 -545 -152 -245 -328 -656 -418 -972 -7
-25 -14 -49 -15 -55 -29 -103 -35 -141 -37 -233 -2 -160 10 -312 39 -476 8
-50 17 -104 20 -121 16 -96 90 -340 138 -453 100 -237 247 -480 480 -792 39
-52 75 -100 81 -106 5 -6 28 -33 50 -60 101 -123 179 -207 346 -375 350 -349
770 -641 1205 -837 262 -118 707 -237 976 -259 158 -14 491 -7 598 11 14 3 43
7 65 11 587 87 1181 390 1643 837 381 369 649 795 831 1319 25 73 100 357 116
439 22 112 46 255 51 304 3 33 8 69 10 80 17 91 24 480 11 652 -36 490 -198
979 -468 1413 -188 301 -485 638 -790 896 -131 111 -311 251 -468 363 -12 9
-43 32 -67 50 -99 74 -246 120 -444 140 -159 15 -572 2 -700 -23 -9 -2 -47 -6
-85 -9 -39 -4 -77 -9 -85 -11 -8 -2 -35 -7 -60 -10 -76 -10 -101 -15 -210 -36
-58 -12 -118 -23 -135 -26 -16 -3 -72 -30 -125 -60 -108 -63 -104 -61 -412
-234 -125 -70 -236 -130 -245 -133 -14 -4 -25 8 -49 52 -17 31 -50 89 -73 129
-22 40 -41 77 -41 83 0 5 -4 10 -10 10 -5 0 -10 4 -10 9 0 5 -59 114 -132 242
-72 129 -141 252 -153 274 -13 22 -29 41 -36 42 -8 1 -39 -10 -71 -25z"/>
    </g>
</svg>
